<?xml version="1.0" encoding="utf-8"?>
<!-- Svg Vector Icons : http://www.onlinewebfonts.com/icon -->
<!DOCTYPE svg PUBLIC "-//W3C//DTD SVG 1.1//EN" "http://www.w3.org/Graphics/SVG/1.1/DTD/svg11.dtd">
<svg version="1.1" xmlns="http://www.w3.org/2000/svg" xmlns:xlink="http://www.w3.org/1999/xlink" x="0px" y="0px" viewBox="0 0 1000 1000" enable-background="new 0 0 1000 1000" xml:space="preserve">
<metadata> Svg Vector Icons : http://www.onlinewebfonts.com/icon </metadata>
<g><g transform="translate(0.000000,511.000000) scale(0.100000,-0.100000)"><path d="M3013.3,4012.4c-235.9-56.1-460.2-238.3-572.3-464.9c-53.7-107.5-65.4-165.9-70.1-355.1l-9.4-228.9h294.3h294.3v158.8c0,107.5,11.7,175.2,37.4,212.6c88.8,123.8-35,119.1,3153.7,119.1c2644.4,0,2964.5-4.7,3034.5-37.4c158.9-74.7,151.8,25.7,151.8-2179.5v-1988H7482.2H5636.7v-712.5v-712.5l1817.5,4.7l1815.1,7l154.2,74.8c184.6,91.1,327.1,238.3,413.5,422.8l63.1,133.2V931.1v2464.5l-74.8,154.2c-91.1,184.5-238.3,327-422.8,413.5l-133.2,63.1l-3083.6,4.7C4440.6,4031.1,3064.7,4024.1,3013.3,4012.4z M6311.8-1124.6c226.6-114.5,271-413.5,91.1-600.4c-177.5-182.2-488.2-137.8-602.7,88.8C5627.4-1299.8,5975.4-951.8,6311.8-1124.6z"/><path d="M1093,2690.2c-109.8-56.1-177.5-126.1-224.3-228.9c-39.7-84.1-44.4-161.2-44.4-705.5v-614.4h221.9h221.9V1375v233.6h1845.5h1845.5V-540.6v-2149.2h-911.1h-911.1v-114.5c0-105.1,4.7-114.5,67.7-126.2c158.9-32.7,280.3-217.3,247.6-380.8c-21-116.8-137.8-240.6-242.9-257c-74.8-11.7-91.1-28-135.5-128.5l-51.4-114.5h1009.2c925.1,0,1016.2,4.7,1102.6,44.4c107.5,49.1,236,184.5,261.6,278c11.7,35,18.7,1371.3,18.7,2971.5v2908.4l-53.7,98.1c-28,56.1-95.8,128.5-149.5,163.5l-98.1,65.4l-1974,4.7C1371,2727.6,1156.1,2725.2,1093,2690.2z M3225.9,2234.6c39.7-35,35-135.5-11.7-186.9c-49-56.1-135.5-53.7-193.9,4.7c-63.1,63.1-58.4,107.5,11.7,177.5C3092.7,2288.4,3153.4,2290.7,3225.9,2234.6z"/><path d="M287.1,879.7c-200.9-105.1-186.9,63.1-186.9-2315c0-2303.4-7-2200.6,142.5-2308l79.4-56.1h1179.7h1179.7l72.4,51.4c156.5,112.1,149.5-9.4,149.5,2305.7c0,2037.1-2.3,2097.8-46.7,2184.2c-30.4,63.1-77.1,107.5-147.2,140.2c-98.1,46.7-130.8,49.1-1210.1,49.1C394.6,931.1,389.9,931.1,287.1,879.7z M1747.1,522.3v-70.1h-245.3c-217.3,0-245.3,4.7-252.3,42c-21,102.8,4.7,112.1,257,105.1l240.6-7V522.3z M2576.4-1440v-1553.5H1501.8H427.3V-1440V113.5h1074.6h1074.6V-1440z M1672.4-3250.4c154.2-170.5,2.3-432.2-221.9-387.8c-161.2,32.7-245.3,196.2-170.5,341.1C1357-3147.7,1555.6-3124.3,1672.4-3250.4z"/><path d="M5636.7-2956.1c0-544.3-9.3-607.4-109.8-766.2l-53.7-88.8h1044.2c950.8,0,1053.6,4.7,1128.3,42.1c63.1,30.4,84.1,56.1,88.8,112.1c11.7,109.8-70.1,163.5-271,179.9c-282.7,23.4-446.2,128.5-542,345.8c-51.4,121.4-91.1,371.4-93.4,577v121.5h-595.7h-595.7V-2956.1z"/></g></g>
</svg>